<svg width="14" height="14" viewBox="0 0 14 14" fill="none" xmlns="http://www.w3.org/2000/svg">
<path fill-rule="evenodd" clip-rule="evenodd" d="M0.333344 6.99992C0.333344 6.53968 0.70644 6.16658 1.16668 6.16658H12.8333C13.2936 6.16658 13.6667 6.53968 13.6667 6.99992C13.6667 7.46016 13.2936 7.83325 12.8333 7.83325H1.16668C0.70644 7.83325 0.333344 7.46016 0.333344 6.99992Z" fill="#3A3A3A"/>
<path fill-rule="evenodd" clip-rule="evenodd" d="M7.58927 0.57733C7.9147 0.902767 7.9147 1.4304 7.58927 1.75584L2.34519 6.99992L7.58927 12.244C7.9147 12.5694 7.9147 13.0971 7.58927 13.4225C7.26383 13.7479 6.73619 13.7479 6.41075 13.4225L0.577421 7.58917C0.251984 7.26374 0.251984 6.7361 0.577421 6.41066L6.41075 0.57733C6.73619 0.251893 7.26383 0.251893 7.58927 0.57733Z" fill="#3A3A3A"/>
</svg>
